<svg width="12" height="14" viewBox="0 0 12 14" fill="none" xmlns="http://www.w3.org/2000/svg">
<path d="M11.7003 10.1585V11.9585C11.6996 12.2766 11.5729 12.5815 11.3479 12.8064C11.123 13.0314 10.8181 13.1581 10.5 13.1588H1.5C1.18189 13.1581 0.877016 13.0314 0.652076 12.8064C0.427136 12.5815 0.300433 12.2766 0.299683 11.9585V10.1585C0.301932 9.36348 0.618758 8.60165 1.18094 8.03947C1.74312 7.47729 2.50496 7.16046 3.3 7.15821H8.7C9.49504 7.16046 10.2569 7.47729 10.8191 8.03947C11.3812 8.60165 11.6981 9.36348 11.7003 10.1585ZM2.93431 3.19158C2.9345 2.58528 3.11446 1.99266 3.45144 1.48863C3.78841 0.984608 4.26727 0.591819 4.82747 0.35993C5.38766 0.12804 6.00404 0.0674648 6.59866 0.185862C7.19329 0.304259 7.73945 0.596312 8.1681 1.02509C8.59675 1.45387 8.88863 2.00013 9.00684 2.59479C9.12506 3.18945 9.06429 3.8058 8.83223 4.36593C8.60017 4.92606 8.20723 5.40479 7.7031 5.74161C7.19897 6.07843 6.60629 6.25821 6 6.25821C5.18693 6.25821 4.40716 5.93522 3.83223 5.36029C3.2573 4.78536 2.93431 4.00465 2.93431 3.19158Z" fill="#010101"/>
</svg>
